<svg width="8" height="8" viewBox="0 0 10 10" fill="none" xmlns="http://www.w3.org/2000/svg"><path d="M0.226979 9.76531C0.373336 9.91199 0.578237 10 0.783137 10C0.988038 10 1.1783 9.92666 1.3393 9.76531L4.99823 6.09828L8.65717 9.76531C8.80353 9.91199 9.00843 10 9.21333 10C9.41823 10 9.60849 9.92666 9.76949 9.76531C10.0768 9.45728 10.0768 8.95856 9.76949 8.6652L6.11055 4.99817L9.76949 1.33113C10.0768 1.0231 10.0768 0.524386 9.76949 0.231023C9.46214 -0.0770077 8.97916 -0.0770077 8.67181 0.231023L5.01287 3.89806L1.35393 0.231023C1.04658 -0.0770077 0.563601 -0.0770077 0.25625 0.231023C-0.0511004 0.539054 -0.0511004 1.03777 0.25625 1.33113L3.91519 4.99817L0.25625 8.6652C-0.0803718 8.97323 -0.0803718 9.45728 0.226979 9.76531Z" fill="#B3B4B6"></path></svg>