<svg width="16" height="16" viewBox="0 0 16 16" fill="none" xmlns="http://www.w3.org/2000/svg">
    <path fill-rule="evenodd" clip-rule="evenodd" d="M15.7095 14.329L12.4116 11.0755C13.3394 9.9113 13.8976 8.44657 13.8976 6.85474C13.8976 3.07508 10.7805 0 6.94926 0C3.11715 0 0 3.07508 0 6.85474C0 10.6336 3.11715 13.7086 6.94926 13.7086C8.45041 13.7086 9.83848 13.2305 10.9764 12.4291L14.3054 15.7138C14.4995 15.9049 14.7533 16 15.0079 16C15.2617 16 15.5154 15.9049 15.7095 15.7138C16.0968 15.3316 16.0968 14.7121 15.7095 14.329ZM1.98405 6.8547C1.98405 4.15506 4.21173 1.95882 6.9487 1.95882C9.68567 1.95882 11.9116 4.15506 11.9116 6.8547C11.9116 9.55434 9.68567 11.7497 6.9487 11.7497C4.21173 11.7497 1.98405 9.55434 1.98405 6.8547Z" fill="#B3B4B6"/>
</svg>